<svg xmlns="http://www.w3.org/2000/svg" x="0px" y="0px" viewBox="0 0 864 864" enable-background="new 0 0 864 864"><style>.fs0,.ls0{fill:#000}</style><g transform="translate(291.8996482412 356.1996482412) scale(.32442)"><path class="ls0" d="M420.5,134.8v594.3c-18.5-0.7-36.5-3.1-54-7c-94.6-21.2-172.1-87.6-208.9-175.2l49.8-20.9	c12.1,28.8,29.8,55.3,52.5,78c30.1,30.1,66.7,51.3,106.6,62.4v-469c-39.9,11.1-76.5,32.3-106.6,62.4c-5.2,5.2-10.2,10.6-14.8,16.2	l-41.5-34.6c41.2-49.3,98-85.1,162.9-99.7C384,137.9,402,135.5,420.5,134.8z"/><g><path class="ls0" d="M722.6,495.5c-3,13.8-7,27.3-11.8,40.3c-15.2,40.9-39.2,77.5-69.7,107.6l-38-38.4c0.3-0.3,0.7-0.6,1-1 c26.6-26.5,46.2-58.2,58.1-92.6l-41.3-41.3L609.7,459H497.5v263.1c-17.5,3.9-35.5,6.3-54,7V134.8c18.5,0.7,36.5,3.1,54,7V405h112.2 l52.5-52.5c-11.9-34.5-31.5-66.1-58.1-92.6c-0.3-0.3-0.6-0.6-1-1l38-38.4c30.5,30.1,54.4,66.7,69.7,107.6 c4.9,13,8.8,26.5,11.8,40.3L659.1,432L722.6,495.5z"/></g></g><g class="fs0"><g><path d="M830.8,362.8c-19.2,17.7-41.4,29.2-66.2,36.9c-23.7,7.4-49.4,9.3-74,11.9c-14.9,1.5-29.7,2.6-44.3,5.8 c-6.5,1.4-13,3.2-19.4,5.1c10.4-4.1,21.3-7.5,32.6-9.9c33.3-7.2,66.8-10.4,98.4-23.8c26.2-11.2,48.5-30.1,60.9-56.1 c5.4-11.2,8.8-23.3,10-35.7c0.1-0.6,0.1-1.3,0.2-2c0.8-11.8,0-23.5-4.7-34.4c-0.1,0.1-0.2,0.1-0.4,0.3c-22,21.9-48,40.1-75.8,53.8 c-26.9,13.3-55.1,22.8-83.5,32c4.3-1.8,8.6-3.5,12.9-5.3c27.3-11.5,54.1-24.5,78.6-41.3c22.1-15.2,44.8-34.6,55-60 c0.6-1.4-1.4-2.3-2.4-1.4c-24.1,24.9-51.8,46.5-82.1,63.2c-56.8,31.3-120.3,47.9-177.1,79.2c-10.4,5.7-20.8,12.1-30.8,19.2 c-11.5-10.4-25.1-18.9-40.4-24.7c-47-18-98.1-6.8-133.1,24.7c-10-7.1-20.4-13.5-30.8-19.2c-56.8-31.2-120.3-47.9-177.1-79.2 c-30.4-16.7-58-38.3-82.1-63.2c-0.9-1-2.9,0-2.4,1.4c10.3,25.4,33,44.8,55,60c24.5,16.8,51.3,29.8,78.6,41.3 c4.3,1.8,8.6,3.6,12.9,5.3c-28.4-9.2-56.7-18.8-83.5-32c-27.8-13.7-53.8-32-75.8-53.8c-0.1-0.1-0.2-0.2-0.4-0.3 C35,271.4,34.2,283.2,35,295c0.1,0.7,0.1,1.4,0.2,2c1.2,12.4,4.7,24.4,10,35.7c12.4,26,34.6,44.9,60.9,56.1 c31.6,13.5,65.1,16.7,98.4,23.8c11.3,2.4,22.2,5.8,32.6,9.9c-6.4-2-12.9-3.7-19.4-5.1c-14.7-3.2-29.4-4.3-44.3-5.8 c-24.6-2.5-50.3-4.4-74-11.9c-24.8-7.8-47-19.2-66.2-36.9c-0.8-0.7-1.7,0.3-1.1,1.1c25.1,31.7,66,47.1,104.9,57.4 c-12-1.4-24.1-2.7-35.9-5c-9-1.8-18-3.7-26.8-6.1c-2.1-0.6-4.2-1.2-6.2-1.9c-8.5-3.7-16.8-7.8-24.9-12.4c-0.1,0-0.1-0.1-0.2-0.1 c0,0.2,0,0.3,0,0.5c0,0.5,0.1,1,0.1,1.5c0,0.1,0,0.2,0,0.3c0.2,9.5,3.1,19.7,7.4,28.9c6.9,12.5,17,23.6,27,31.7 c21.5,17.4,48.1,25,75.2,27.3c24,2,48.9,0.2,73.5-0.3c-4.6,1.2-9,2.4-13.1,3.4c-15.3,3.6-30.8,6.8-46.7,6.4 c-7.5-0.2-15.1-1.2-22.5-2.6c-6.6-1.2-13-3.9-19.8-3.9c-0.1,0-0.2,0.2-0.1,0.2c7.9,7.8,21.7,10.2,32.3,11.7c14.5,2,28.9,1,43.3-1.5 c13.3-2.3,26.2-5.5,39.5-7.3c-3.8,1.5-7.4,3-10.9,4.4c-13.9,5.4-27.8,10.3-42.8,11.4c-6.7,0.5-13.4,0.3-20-0.4 c-6.3-0.7-12.9-2.9-19.1-1.6c-0.5-0.1-1,0.1-1.3,0.6c8.9,8.6,17.6,16.4,27.9,23.5c6.7,4.7,13.7,8.6,20.8,12.2 c11.5,4.8,23.2,7.4,36.5,5.5c26.3-3.9,50-17.7,74.8-25.6c0.3,1.4,0.6,2.9,1,4.3c-10.1,4-20.2,8.3-29.9,13.2 c-13.4,6.8-25,11.4-40.2,10.8c-0.3,0-0.5,0.5-0.2,0.7c19.2,9,44.9-5.2,62.8-11.9c3.3-1.3,6.7-2.5,10.1-3.6c0.6,1.8,1.2,3.5,1.8,5.3 c-14.6,8.8-31,17.3-47.2,14.4c-1.3-0.2-1.9,1.3-0.9,2.1c0.2,0.1,0.4,0.2,0.5,0.4c0,0,0,0.1,0,0.1c2.4,7.8,18.3,11.1,25.2,12 c11.6,1.6,23.6,0,34.6-4.2c14.4,22.7,35.9,41.1,62.9,51.5c58.6,22.5,123.4-0.5,155.7-51.5c10.9,4.2,22.9,5.8,34.6,4.2 c6.9-0.9,22.8-4.2,25.2-12c0,0,0-0.1,0-0.1c0.2-0.1,0.4-0.2,0.5-0.4c1-0.8,0.4-2.3-0.9-2.1c-16.2,2.9-32.6-5.6-47.2-14.4 c0.6-1.8,1.2-3.5,1.8-5.3c3.4,1.2,6.7,2.4,10.1,3.6c17.9,6.7,43.6,21,62.8,11.9c0.3-0.2,0.2-0.7-0.2-0.7 c-15.2,0.5-26.8-4-40.2-10.8c-9.7-4.9-19.8-9.2-29.9-13.2c0.3-1.4,0.7-2.9,1-4.3c24.8,7.9,48.5,21.8,74.8,25.6 c13.3,1.9,25-0.7,36.5-5.5c7.1-3.6,14.1-7.5,20.8-12.2c10.4-7.2,19-15,27.9-23.5c-0.3-0.4-0.8-0.7-1.3-0.6 c-6.2-1.2-12.9,0.9-19.1,1.6c-6.6,0.8-13.3,0.9-20,0.4c-15-1.1-28.9-6-42.8-11.4c-3.4-1.3-7.1-2.8-10.9-4.4 c13.3,1.8,26.3,5,39.5,7.3c14.4,2.5,28.8,3.5,43.3,1.5c10.6-1.4,24.4-3.9,32.3-11.7c0.1-0.1,0-0.2-0.1-0.2 c-6.8,0-13.1,2.7-19.8,3.9c-7.4,1.4-14.9,2.4-22.5,2.6c-15.8,0.4-31.3-2.8-46.7-6.4c-4.1-1-8.5-2.2-13.1-3.4 c24.6,0.4,49.5,2.3,73.5,0.3c27.2-2.3,53.8-10,75.2-27.3c10-8.1,20.1-19.3,27-31.7c4.2-9.2,7.1-19.4,7.4-28.9c0-0.1,0-0.2,0-0.3 c0-0.5,0.1-1,0.1-1.5c0-0.2,0-0.3,0-0.5c-0.1,0-0.1,0-0.2,0.1c-8.1,4.6-16.4,8.7-24.9,12.4c-2.1,0.7-4.1,1.4-6.2,1.9 c-8.8,2.4-17.8,4.3-26.8,6.1c-11.8,2.3-23.9,3.6-35.9,5c38.9-10.3,79.8-25.6,104.9-57.4C832.5,363.1,831.6,362.1,830.8,362.8z M543.5,539.1c-17.6,45.9-62.4,76.7-111.5,76.7c-14.6,0-29-2.7-42.8-8c-61.5-23.6-92.3-92.8-68.7-154.3 c17.6-45.9,62.4-76.7,111.5-76.7c14.6,0,29,2.7,42.8,8C536.3,408.4,567.1,477.6,543.5,539.1z"/><path d="M471.9,392.3c-12.9-4.9-26.3-7.4-39.9-7.4c-45.8,0-87.6,28.7-104,71.5c-22,57.3,6.8,121.9,64.1,143.9 c12.9,4.9,26.3,7.4,39.9,7.4c45.8,0,87.6-28.7,104-71.5C558,478.9,529.2,414.3,471.9,392.3z M531.8,534.6 c-15.7,41-55.8,68.6-99.8,68.6c-13,0-25.9-2.4-38.2-7.1c-55-21.1-82.6-83-61.5-138c15.7-41,55.8-68.6,99.8-68.6 c13,0,25.9,2.4,38.2,7.1C525.3,417.7,552.9,479.6,531.8,534.6z"/></g></g></svg>